<svg width="16" height="16" viewBox="0 0 16 16" fill="none" xmlns="http://www.w3.org/2000/svg">
<path fill-rule="evenodd" clip-rule="evenodd" d="M6.58548 0.913911C7.36653 0.132863 8.63286 0.132863 9.41391 0.913911L10.4997 1.9997H11.9997C13.1043 1.9997 13.9997 2.89513 13.9997 3.9997V5.4997L15.0855 6.58548C15.8665 7.36653 15.8665 8.63286 15.0855 9.41391L13.9997 10.4997V11.9997C13.9997 13.1043 13.1043 13.9997 11.9997 13.9997H10.4997L9.41391 15.0855C8.63286 15.8665 7.36653 15.8665 6.58548 15.0855L5.4997 13.9997H3.9997C2.89513 13.9997 1.9997 13.1043 1.9997 11.9997V10.4997L0.913911 9.41391C0.132863 8.63286 0.132863 7.36653 0.913911 6.58548L1.9997 5.4997V3.9997C1.9997 2.89513 2.89513 1.9997 3.9997 1.9997H5.4997L6.58548 0.913911ZM12.0303 6.53033C12.3232 6.23744 12.3232 5.76256 12.0303 5.46967C11.7374 5.17678 11.2626 5.17678 10.9697 5.46967L7 9.43934L5.53033 7.96967C5.23744 7.67678 4.76256 7.67678 4.46967 7.96967C4.17678 8.26256 4.17678 8.73744 4.46967 9.03033L6.46967 11.0303C6.76256 11.3232 7.23744 11.3232 7.53033 11.0303L12.0303 6.53033Z" fill="white"/>
</svg>